<?xml version="1.0" standalone="no"?>
<!DOCTYPE svg PUBLIC "-//W3C//DTD SVG 20010904//EN"
 "http://www.w3.org/TR/2001/REC-SVG-20010904/DTD/svg10.dtd">
<svg version="1.0" xmlns="http://www.w3.org/2000/svg"
 width="1000.000000pt" height="1000.000000pt" viewBox="0 0 1000.000000 1000.000000"
 preserveAspectRatio="xMidYMid meet">
<metadata>
Created by potrace 1.14, written by Peter Selinger 2001-2017
</metadata>
<g transform="translate(0.000000,1000.000000) scale(0.100000,-0.100000)"
fill="#000000" stroke="none">
<path d="M4325 9731 c-70 -18 -215 -88 -215 -103 0 -4 -5 -8 -11 -8 -22 0
-169 -169 -174 -200 -1 -3 -11 -24 -22 -48 -12 -24 -25 -56 -28 -72 -4 -17 -9
-30 -11 -30 -3 0 -24 13 -47 29 -77 52 -131 75 -237 99 -35 8 -188 7 -230 -2
-180 -35 -343 -157 -437 -326 -23 -41 -48 -111 -45 -124 2 -5 -2 -12 -8 -16
-8 -5 -15 -50 -22 -148 -1 -10 -11 -11 -42 -6 -50 9 -221 11 -257 2 -64 -15
-139 -42 -139 -50 0 -5 -4 -7 -9 -3 -5 3 -15 0 -23 -7 -7 -7 -26 -20 -42 -28
-38 -20 -166 -140 -166 -157 0 -7 -4 -13 -9 -13 -5 0 -14 -13 -21 -30 -7 -16
-16 -30 -19 -30 -7 0 -50 -111 -59 -150 -2 -8 -6 -26 -9 -40 -3 -14 -6 -67 -8
-118 -2 -84 7 -141 38 -237 5 -16 -1 -23 -31 -37 -118 -54 -195 -118 -268
-223 -34 -50 -98 -194 -90 -202 2 -3 -1 -19 -9 -36 -16 -40 -12 -263 5 -284 2
-2 3 -6 5 -10 1 -5 5 -21 10 -38 18 -68 78 -169 137 -233 l36 -39 -51 -39
c-29 -22 -63 -52 -76 -68 -14 -15 -29 -33 -35 -40 -23 -24 -56 -76 -56 -86 0
-5 -4 -10 -10 -10 -5 0 -10 -5 -10 -11 0 -5 -9 -29 -20 -53 -10 -23 -21 -55
-25 -69 -3 -15 -8 -39 -11 -54 -5 -27 -15 -109 -15 -128 0 -59 25 -178 49
-235 9 -19 16 -40 18 -45 10 -52 206 -265 244 -265 5 0 -9 -33 -30 -73 -22
-40 -41 -82 -43 -92 -2 -11 -7 -27 -10 -35 -21 -48 -30 -271 -13 -298 3 -5 8
-24 11 -42 7 -41 43 -129 62 -151 7 -9 10 -19 6 -22 -3 -4 -1 -7 5 -7 7 0 12
-7 12 -15 0 -8 5 -15 10 -15 6 0 10 -5 10 -11 0 -11 91 -104 137 -140 25 -20
151 -81 214 -103 25 -9 46 -22 46 -29 1 -27 14 -125 24 -182 6 -33 12 -69 14
-80 14 -95 115 -428 154 -510 45 -94 101 -218 101 -223 0 -3 6 -13 14 -21 7
-9 28 -43 46 -76 29 -54 137 -223 150 -235 3 -3 17 -21 30 -40 13 -19 27 -37
30 -40 3 -3 25 -30 50 -60 50 -61 151 -171 190 -206 14 -13 49 -45 78 -73 28
-27 87 -75 130 -107 42 -33 79 -62 80 -66 2 -5 8 -8 14 -8 5 0 24 -11 41 -24
26 -20 228 -127 247 -131 3 -1 19 -7 35 -15 42 -18 85 -35 120 -48 17 -5 39
-14 50 -18 11 -4 22 -8 25 -9 3 0 44 -13 93 -29 48 -15 96 -28 107 -29 11 -1
20 -4 20 -8 0 -4 10 -10 23 -12 12 -2 -61 -4 -163 -4 -159 1 -246 -4 -310 -17
-40 -8 -107 -28 -122 -36 -10 -6 -25 -10 -33 -10 -8 0 -15 -3 -15 -8 0 -4 -15
-14 -32 -22 -18 -7 -37 -18 -43 -22 -5 -5 -26 -22 -45 -38 -19 -16 -38 -30
-42 -30 -5 0 -8 -4 -8 -9 0 -5 -15 -25 -33 -44 -62 -66 -146 -251 -177 -392
-18 -76 -32 -159 -36 -205 -1 -14 -3 -25 -4 -25 -5 0 -22 -261 -24 -360 -1
-49 -5 -96 -9 -102 -5 -7 -4 -13 0 -13 5 0 7 -39 6 -87 -2 -49 -3 -92 -3 -98
0 -5 2 -118 4 -250 3 -132 6 -322 7 -422 l2 -183 1909 0 1909 0 -2 53 c-1 29
1 59 5 65 4 7 4 12 -1 12 -4 0 -6 39 -3 87 10 175 2 1208 -10 1208 -1 0 -3 18
-5 40 -3 54 -18 157 -30 220 -3 17 -13 53 -21 80 -8 28 -14 50 -13 50 12 0
-61 174 -98 232 -18 29 -30 53 -27 53 4 0 -29 35 -72 79 -113 112 -240 171
-406 187 -103 10 -191 11 -221 3 -15 -4 -25 -4 -22 1 3 4 -13 6 -35 3 -53 -7
-51 3 3 17 23 6 71 20 107 32 36 11 71 21 78 21 6 0 12 4 12 9 0 4 8 8 18 8
10 0 23 5 30 12 7 7 12 9 12 6 0 -18 268 116 358 178 35 24 65 44 68 44 3 0
11 6 18 12 7 7 32 29 57 48 177 141 384 352 484 494 11 16 30 41 43 56 12 15
22 32 22 38 0 5 7 13 16 16 8 3 12 10 9 16 -3 5 -1 10 4 10 6 0 11 7 11 15 0
8 4 15 9 15 5 0 16 15 26 33 9 17 27 50 41 72 42 71 164 322 164 339 0 9 4 16
8 16 5 0 9 6 10 13 2 27 35 107 44 107 5 0 7 4 4 8 -3 5 6 44 20 88 23 75 58
210 68 264 2 14 7 36 10 50 10 45 29 188 30 227 0 18 10 26 50 39 28 10 72 30
99 46 26 15 50 28 52 28 2 0 23 18 47 40 24 22 46 40 51 40 4 0 7 5 7 10 0 6
12 23 28 39 30 32 89 136 104 185 28 89 35 145 33 239 -3 126 -38 243 -97 330
-14 19 -16 27 -6 27 25 0 129 94 181 162 38 51 94 161 101 201 2 14 9 35 16
46 7 15 7 21 0 21 -7 0 -8 6 -1 18 6 11 10 27 10 38 0 10 0 42 1 69 0 28 -3
66 -6 85 -3 19 -7 44 -8 55 -3 28 -39 121 -67 172 -28 53 -94 134 -139 170
-18 16 -45 37 -59 49 l-25 21 30 30 c16 16 35 38 42 49 7 10 21 33 32 49 10
17 23 35 28 40 4 6 11 19 15 30 3 11 13 39 21 62 25 67 29 93 32 205 2 120
-14 196 -68 303 -64 128 -199 255 -315 297 -24 9 -32 16 -27 28 29 69 43 162
40 260 -3 102 -16 157 -60 260 -31 74 -172 240 -203 240 -7 0 -13 3 -13 8 0
17 -157 87 -222 99 -54 9 -210 9 -263 -1 l-41 -7 -2 56 c-1 32 -7 65 -12 75
-6 10 -10 28 -10 39 0 12 -4 29 -9 39 -5 9 -22 44 -37 77 -30 61 -100 156
-141 188 -13 10 -29 24 -36 30 -44 42 -180 107 -257 122 -64 13 -194 12 -260
-3 -75 -17 -157 -52 -217 -94 -41 -27 -42 -28 -53 -9 -5 11 -10 24 -10 30 0
16 -52 124 -67 139 -7 7 -13 17 -13 22 0 9 -111 124 -145 150 -18 14 -129 70
-180 92 -63 26 -230 33 -326 13 -40 -9 -77 -19 -83 -24 -6 -4 -27 -14 -46 -21
-54 -22 -119 -69 -180 -130 l-55 -56 -45 49 c-57 63 -195 152 -250 163 -3 0
-12 3 -20 6 -79 31 -236 35 -335 9z"/>
</g>
</svg>
